<?xml version="1.0" encoding="utf-8"?>
<!-- Generator: Adobe Illustrator 24.2.1, SVG Export Plug-In . SVG Version: 6.00 Build 0)  -->
<svg version="1.1" id="Layer_1" xmlns="http://www.w3.org/2000/svg" xmlns:xlink="http://www.w3.org/1999/xlink" x="0px" y="0px"
	 viewBox="0 0 512 512" style="enable-background:new 0 0 512 512;" xml:space="preserve">
<style type="text/css">
	.st0{fill:#FFFFFF;}
</style>
<g>
	<g>
		<path class="st0" d="M155.5,163.4c-4.2-4-10.9-3.8-15,0.4l-0.9,0.9c-4,4.3-3.8,11,0.5,15c2,1.9,4.6,2.9,7.2,2.9
			c2.8,0,5.6-1.1,7.7-3.3l0.8-0.9C160,174.1,159.8,167.4,155.5,163.4z"/>
	</g>
</g>
<g>
	<g>
		<path class="st0" d="M510.2,274.6c-17.2-26-42.6-41-58.7-48.4l28.1-30.7c2.6-2.8,3.5-6.9,2.2-10.6c-1.2-3.7-4.4-6.4-8.2-7
			c-31.4-5.6-53.8-4.8-68.3-2.6l13.6-39.7c1.1-3.1,0.6-6.6-1.2-9.3c-1.8-2.7-4.8-4.5-8.1-4.7c-37-2.4-63.7,9.5-79.4,19.7l-2.7-29.8
			c-0.5-5.6-5.4-9.8-11-9.6c-38.2,1.8-70.2,22.9-90.3,40.2l2.8-22.3c0.5-3.7-1.1-7.4-4-9.7c-2.9-2.3-6.9-2.9-10.3-1.5
			c-1,0.4-24.6,9.8-55,36.7c-4.4,3.9-4.8,10.6-0.9,14.9c3.9,4.4,10.6,4.8,14.9,0.9c12.3-10.9,23.4-18.6,31.8-23.8l-4.1,32.9
			c-0.6,4.7,2,9.2,6.4,11.1c4.4,1.8,9.4,0.6,12.4-3.1c0.4-0.5,37.7-46.2,87.3-54l3.6,38.8c0.4,4.2,3.2,7.7,7.2,9.1
			c4,1.3,8.4,0.2,11.2-2.9c0.2-0.3,22.5-24.2,64.8-26.4L379,187.1c0,0,0,0,0,0.1c-0.1,0.3-0.2,0.6-0.2,0.9c0,0.1,0,0.1,0,0.2
			c-0.1,0.3-0.1,0.5-0.1,0.8c0,0.1,0,0.2,0,0.2c0,0.3,0,0.5-0.1,0.8c0,0.1,0,0.2,0,0.3c0,0.3,0,0.5,0,0.8c0,0.1,0,0.2,0,0.2
			c0,0.3,0.1,0.5,0.1,0.8c0,0.1,0,0.1,0,0.2c0.1,0.3,0.1,0.6,0.2,0.9c0,0,0,0.1,0,0.1c0.1,0.3,0.2,0.6,0.3,0.9c0,0,0,0,0,0
			c0.1,0.3,0.3,0.6,0.4,0.9c0,0,0,0,0,0c0.1,0.3,0.3,0.6,0.5,0.8c0,0,0,0,0,0.1c0.1,0.2,0.3,0.5,0.5,0.7c0,0.1,0.1,0.1,0.1,0.2
			c0.2,0.2,0.3,0.4,0.5,0.6c0.1,0.1,0.1,0.2,0.2,0.2c0.1,0.1,0.1,0.2,0.2,0.2c0.1,0.1,0.2,0.2,0.4,0.3c0,0,0.1,0.1,0.1,0.1
			c2,1.8,4.5,2.7,7,2.7c0,0,0,0,0,0c0.2,0,0.4,0,0.5,0c0.1,0,0.2,0,0.2,0c0.2,0,0.3,0,0.5-0.1c0.1,0,0.2,0,0.3,0
			c0.1,0,0.2,0,0.4-0.1c0.1,0,0.3-0.1,0.4-0.1c0.1,0,0.1,0,0.2-0.1c0.2-0.1,0.4-0.1,0.6-0.2c0,0,0,0,0,0c0.5-0.2,1-0.4,1.5-0.6
			c1.4-0.6,19-7.8,56.8-3.9l-24.9,27.1c-2.5,2.7-3.4,6.5-2.4,10c1,3.5,3.7,6.3,7.2,7.3c0.3,0.1,30.2,9.3,52.6,33.5L437.7,285
			c-4,1-7,4.1-7.9,8.1c-0.8,4,0.7,8.1,3.9,10.6c0.3,0.2,25.1,19.6,34.8,47.1l-27.3,3.1c-13.8,1.6-27.5,1.9-40.7,1.1
			c-3.4-0.2-6.8-0.5-10.1-0.9c-57.4-6.7-118.6-31.1-162.5-64.5c11.2-17,11.2-37.6-1.3-50.6c-13.5-14.1-37.4-13.7-55.6,0
			c-6.3-4.4-13-8.6-20.1-12.5c-8.9-4.9-18.6-7-28.2-6.5c4.6-6.9,9.4-13.5,14.4-19.8c3.6-4.6,2.8-11.3-1.8-14.9
			c-4.6-3.6-11.3-2.8-14.9,1.8c-11.6,14.8-22.3,31-32,48.3c-1.6,1.6-3.1,3.3-4.4,5c-3.2,4.2-6.9,9.1-11.2,14.7
			c-4.5,6-11.2,11.1-19.7,15.3c-15.9,7.8-32.6,9.7-37.4,10.2c-5.4,0.5-10.2,3.4-13.1,7.9c-2.9,4.5-3.6,10-1.8,15.1
			c3.2,9.1,10.5,22,26.8,31.7c22.6,13.5,55.7,16.8,98.3,9.7c5.7,3.1,17.6,8.2,37.2,12c-9.4,1.8-18.1,6.3-24.7,13
			c-3.7,3.8-6.8,8.5-8.9,13.6c-2.2,5.2-3.3,10.7-3.3,16.1c0,5.8,4.7,10.6,10.6,10.6h72.2c15.7,0,29-13.8,29-30.1v-8.1l70.7,2.8
			c-4.1,7-6.5,15.6-6.5,24.8c0,5.8,4.7,10.6,10.6,10.6h63.4c8.6,0,17-6,23.5-16.9c3.2-5.3,5.5-11.1,6.9-16.7
			c2.7,0.1,5.4,0.1,8.1,0.1c9.5,0,19.1-0.6,28.9-1.7l39.4-4.5c2.9-0.3,5.5-1.8,7.3-4.2c1.7-2.3,2.5-5.3,2-8.1
			c-4.2-24.6-18.9-44.6-30.5-57.2l42.2-10.2c3.4-0.8,6.1-3.2,7.4-6.4C512.5,281.1,512.1,277.5,510.2,274.6z M34.5,314.2
			c-5.7-4.3-9.3-9.1-11.5-13.3c5.7-0.8,14.5-2.4,24.2-5.5C45.1,302.6,41.3,310.4,34.5,314.2z M228,350.3c-2.9-0.1-5.7,1-7.8,2.9
			c-2.1,2-3.3,4.8-3.3,7.6V380c0,4.6-3.8,8.9-7.8,8.9h-58.7c0.9-1.6,2-3,3.2-4.2c4.7-4.8,11.6-7.5,18.8-7.5c0,0,0,0,0,0l17.6,0
			c0,0,0,0,0,0c2.8,0,5.5-1.1,7.5-3.1c2-2,3.1-4.7,3.1-7.5v-16.8c0-5.5-4.2-10.1-9.7-10.5c-39.2-3.3-56-13.5-57-14.2
			c-2.3-1.7-5-2.2-7.9-1.7c-28.5,5.1-52.5,5.2-70.5,0.5c11.2-12.8,14.1-30.8,14.8-39c7.9-4.9,14.3-10.6,19.3-17.1
			c4.2-5.6,7.9-10.4,11.1-14.6c1-1.3,2.1-2.5,3.3-3.7c9.9-9.3,24.5-11.2,36.5-4.6c5.6,3.1,11,6.4,16,9.9c-3.7,6.1-6,12.8-6.8,19.5
			c-0.7,5.8,3.5,11.1,9.3,11.7c5.8,0.7,11.1-3.5,11.7-9.3c0.7-5.9,3.6-11.8,8.4-16.9c0.4-0.4,0.8-0.9,1.2-1.3
			c10-9.6,24-11.8,30.7-4.9c6.5,6.8,3.8,20.5-5.9,30.1c-0.1,0.1-0.2,0.2-0.4,0.3c-5.5,5.3-12.4,8.5-18.9,8.9
			c-5.8,0.3-10.3,5.3-10,11.1c0.3,5.6,5,10,10.6,10c0.2,0,0.4,0,0.6,0c9-0.5,17.9-3.7,25.7-9.2c25.1,19.6,55.1,36.1,87.2,48.4
			L228,350.3z M375.9,388.9h-50.4c2.8-7,8.2-12,14-12h44.8C381.9,382.7,378.3,387.8,375.9,388.9z"/>
	</g>
</g>
<g>
	<g>
		<path class="st0" d="M116.3,264.4c-5.8,0-10.6,4.7-10.6,10.6v5.5c0,5.8,4.7,10.6,10.6,10.6s10.6-4.7,10.6-10.6V275
			C126.9,269.1,122.1,264.4,116.3,264.4z"/>
	</g>
</g>
</svg>
