<?xml version="1.0" encoding="utf-8"?>
<!-- Generator: Adobe Illustrator 24.2.1, SVG Export Plug-In . SVG Version: 6.00 Build 0)  -->
<svg version="1.1" id="Layer_1" xmlns="http://www.w3.org/2000/svg" xmlns:xlink="http://www.w3.org/1999/xlink" x="0px" y="0px"
	 viewBox="0 0 512 512" style="enable-background:new 0 0 512 512;" xml:space="preserve">
<style type="text/css">
	.st0{fill:#FFFFFF;}
</style>
<g>
	<g>
		<path class="st0" d="M256,342.3c-24.7,0-44.8,20.1-44.8,44.8c0,24.7,20.1,44.8,44.8,44.8s44.8-20.1,44.8-44.8
			C300.8,362.4,280.7,342.3,256,342.3z M256,410.5c-12.9,0-23.4-10.5-23.4-23.4c0-12.9,10.5-23.4,23.4-23.4
			c12.9,0,23.4,10.5,23.4,23.4C279.4,400,268.9,410.5,256,410.5z"/>
	</g>
</g>
<g>
	<g>
		<path class="st0" d="M177.9,254c-5.9,0-10.7,4.8-10.7,10.7c0,3.4-2.7,6.1-6.1,6.1c-3.4,0-6.1-2.7-6.1-6.1
			c0-5.9-4.8-10.7-10.7-10.7c-5.9,0-10.7,4.8-10.7,10.7c0,15.2,12.4,27.5,27.5,27.5c15.2,0,27.6-12.4,27.6-27.5
			C188.6,258.8,183.8,254,177.9,254z"/>
	</g>
</g>
<g>
	<g>
		<path class="st0" d="M455.8,187.5l-1.1-1.4c-3.7-4.6-10.5-5.3-15.1-1.5c-4.6,3.7-5.3,10.5-1.5,15.1l1,1.3c2.1,2.6,5.2,4,8.3,4
			c2.4,0,4.7-0.8,6.7-2.4C458.8,198.9,459.5,192.1,455.8,187.5z"/>
	</g>
</g>
<g>
	<g>
		<path class="st0" d="M507.6,276.5c-9.8-23.7-21.4-45.8-34.7-65.7c-3.3-4.9-9.9-6.2-14.9-3c-4.9,3.3-6.3,9.9-3,14.9
			c12.5,18.7,23.5,39.6,32.7,62c4.2,10.3,3.7,21.8-1.5,31.6c-4.7,8.9-12.8,15.5-22.3,18.2c-47.8-100.3-79-147.6-122.6-145.1
			c-15.5,0.9-29.9,15.6-37.2,24.3c-11.8,14.2-20.7,32-24.5,48.6c-8.8,39.2,0.3,48.3,18.6,62.4c13.7,10.6,34.2,26.4,57,76
			c-24.4,24.1-47.7,44-99.2,44c-51.5,0-74.8-19.9-99.2-44c22.8-49.6,43.2-65.4,57-76c18.3-14.1,27.4-23.2,18.6-62.4
			c-3.8-16.7-12.7-34.4-24.5-48.6c-7.2-8.7-21.6-23.4-37.1-24.3c-43.6-2.5-74.8,44.8-122.6,145.1c-9.6-2.8-17.6-9.3-22.3-18.2
			c-5.2-9.8-5.7-21.3-1.5-31.6c15.9-38.7,45.6-92.6,96.2-129.4c27.2-19.8,58.1-32.8,91.7-38.6c14-2.4,28.8-3.7,43.8-3.7
			c15.1,0,29.8,1.2,43.8,3.7c33.6,5.8,64.5,18.8,91.7,38.6c10,7.2,19.6,15.5,28.6,24.5c2.1,2.1,4.8,3.1,7.6,3.1c2.7,0,5.5-1,7.6-3.1
			c4.2-4.2,4.2-11,0-15.1c-7.8-7.8-15.9-15-24.4-21.6c2.7-6.6,6.6-16.8,10.1-27.8c11.7-37.3,7.1-49.9,2.6-56.2
			c-5.4-7.5-14.8-12.1-26.5-13.1c-28.3-2.5-65.6,15.6-100.2,48.5c-13.2-2-27-3-40.9-3s-27.7,1-40.9,3
			C180.4,61.6,143.1,43.5,114.8,46c-11.7,1-21.1,5.7-26.5,13.1c-4.5,6.2-9.1,18.8,2.6,56.2c3.4,11,7.4,21.1,10.1,27.8
			c-50.5,39.4-80.3,93.9-96.6,133.4c-6.6,16.2-5.8,34.3,2.4,49.8c8.1,15.4,22.5,26.2,39.4,29.9c1.9,0.4,3.6,0.8,5.3,1.2c0,0,0,0,0,0
			c41.5,10.2,63.6,32.1,84.9,53.4l0.2,0.2c27.3,27.2,55.5,55.4,119.4,55.4s92.1-28.1,119.4-55.4l0.2-0.2
			c21.3-21.2,43.3-43.2,84.9-53.4c0,0,0,0,0,0c0,0,0,0,0,0c1.7-0.4,3.4-0.8,5.3-1.2c16.9-3.6,31.3-14.5,39.4-29.9
			C513.4,310.8,514.2,292.6,507.6,276.5z M395.3,67.4c5.2,0.5,9.3,2.1,11,4.3c0,0.1,3.9,6.9-5.8,37.7c-2.5,7.7-5.2,15.1-7.5,20.9
			c-21.5-13.9-44.9-24.1-69.8-30.5C353.8,74.2,379.9,66,395.3,67.4z M105.7,71.7c1.6-2.3,5.7-3.9,11-4.3
			c15.4-1.3,41.5,6.8,72.1,32.4c-24.9,6.4-48.3,16.7-69.8,30.5c-2.3-5.8-5-13.2-7.5-20.9C101.8,78.6,105.7,71.7,105.7,71.7z
			 M69.2,340.1c40.9-85.4,69.6-131.1,100.3-129.3c9.9,0.6,35,25.3,42,56.3c3.2,14,3.7,22.9,1.8,28c-1.6,4.1-5.2,7-12.5,12.7
			c-14.8,11.4-36.4,28-60.1,77C122.8,367.8,101.7,350.5,69.2,340.1z M371.4,384.8c-23.7-49-45.3-65.7-60.1-77
			c-7.3-5.7-11-8.6-12.5-12.7c-2-5.1-1.4-14,1.8-28c7-31,32.1-55.7,42-56.3c30.7-1.8,59.4,43.9,100.3,129.3
			C410.3,350.5,389.2,367.8,371.4,384.8z"/>
	</g>
</g>
<g>
	<g>
		<path class="st0" d="M367.8,254c-5.9,0-10.7,4.8-10.7,10.7c0,3.4-2.7,6.1-6.1,6.1c-3.4,0-6.1-2.7-6.1-6.1
			c0-5.9-4.8-10.7-10.7-10.7s-10.7,4.8-10.7,10.7c0,15.2,12.4,27.5,27.5,27.5c15.2,0,27.5-12.4,27.5-27.5
			C378.5,258.8,373.7,254,367.8,254z"/>
	</g>
</g>
</svg>
