<?xml version="1.0" encoding="utf-8"?>
<!-- Generator: Adobe Illustrator 24.2.1, SVG Export Plug-In . SVG Version: 6.00 Build 0)  -->
<svg version="1.1" id="Layer_1" xmlns="http://www.w3.org/2000/svg" xmlns:xlink="http://www.w3.org/1999/xlink" x="0px" y="0px"
	 viewBox="0 0 512 512" style="enable-background:new 0 0 512 512;" xml:space="preserve">
<style type="text/css">
	.st0{fill:#FFFFFF;}
</style>
<g>
	<g>
		<path class="st0" d="M155.3,244.8c-17,0-30.8,13.8-30.8,30.8c0,6,4.8,10.8,10.8,10.8s10.8-4.8,10.8-10.8c0-5.1,4.1-9.2,9.2-9.2
			c5.1,0,9.2,4.1,9.2,9.2c0,6,4.8,10.8,10.8,10.8s10.8-4.8,10.8-10.8C186.1,258.6,172.2,244.8,155.3,244.8z"/>
	</g>
</g>
<g>
	<g>
		<path class="st0" d="M511.2,330.9c-3.1-21.7-14.6-40.8-31.9-53.4c0-1.2,0-2.5,0-3.9c0-1.2,0-2.3,0-2.9c0-29.4-6.8-57.7-20.1-84.2
			c27.4-40.5,30.3-104.2,27.6-151.5c-0.6-10.9-7.7-20.2-18.1-23.6c-10.4-3.4-21.6-0.2-28.6,8.3c-16.9,20.5-40.2,46.4-69.4,77.1
			c-27.5-15-58.1-24.3-89.9-27.5l34.8-34.8c4.2-4.2,4.2-11.1,0-15.3s-11.1-4.2-15.3,0l-33.5,33.5V11.2c0-6-4.8-10.8-10.8-10.8
			s-10.8,4.8-10.8,10.8v41.5l-33.5-33.5c-4.2-4.2-11.1-4.2-15.3,0c-4.2,4.2-4.2,11.1,0,15.3l34.8,34.8
			c-31.8,3.2-62.4,12.5-89.9,27.5c-29.2-30.7-52.5-56.6-69.4-77.1c-7-8.4-18.2-11.7-28.6-8.3C32.9,14.8,25.8,24.1,25.2,35
			c-2.6,47.3,0.3,111,27.6,151.5c-13.3,26.5-20.1,54.7-20.1,84.2c0,0.6,0,1.7,0,2.9c0,1.4,0,2.7,0,3.9
			c-17.3,12.6-28.8,31.7-31.9,53.4c-3.3,23.5,3.8,46.3,19.9,63.9c30.6,33.4,63.5,60.1,97.8,79.4c44,24.8,90.2,37.3,137.4,37.3
			c53,0,104.7-15.8,153.5-47c5-3.2,6.5-9.9,3.3-14.9c-3.2-5-9.9-6.5-14.9-3.3c-45.3,28.9-93,43.6-141.9,43.6
			c-98.1,0-173.4-59.7-219.3-109.8c-11.7-12.8-16.9-29.3-14.5-46.3c2.4-17.1,12.5-32.7,27-41.5c6.6-4,13.9-6.6,21.8-7.8l22.2-3.3
			c5.3-0.8,9.2-5.4,9.2-10.7c0-0.5,0.2-49.3,25.1-74.3c9.6-9.6,21.5-14.3,36.3-14.3c38.6,0,44.9,72.1,45.9,90.6
			c-2.1,2.8-3.6,6-4.2,9.5c-1,5.7,0.3,11.5,3.7,16.2l35.8,50.5c-1.6,16.7-15.7,29.7-32.8,29.7c-8.8,0-17.4-1.7-25.5-5.1
			c-8.1-3.4-15.4-8.2-21.6-14.4l-1.9-2c-4.2-4.2-11-4.2-15.3,0c-4.2,4.2-4.2,11,0,15.3l2,2c8.2,8.2,17.9,14.7,28.7,19.1
			c7.4,3.1,15.1,5.1,23,6v30.1c0,6,4.8,10.8,10.8,10.8H300c6,0,10.8-4.8,10.8-10.8v-30.1c7.9-1,15.6-3,23-6
			c10.8-4.5,20.4-10.9,28.7-19.2l1.9-2c4.2-4.2,4.2-11.1,0-15.3c-4.2-4.2-11.1-4.2-15.3,0l-1.9,1.9c-6.2,6.2-13.5,11.1-21.6,14.5
			c-8.2,3.4-16.7,5.1-25.5,5.1c-17.1,0-31.2-13.1-32.8-29.7l35.8-50.5c3.4-4.8,4.7-10.6,3.6-16.4c-0.7-3.5-2.2-6.7-4.3-9.5
			c1-18.8,7.4-90.5,46-90.5c14.8,0,26.7,4.7,36.3,14.3c24.9,24.9,25.1,73.8,25.1,74.3c0,5.4,3.9,9.9,9.2,10.7l22.2,3.3
			c7.9,1.2,15.2,3.8,21.8,7.8c14.5,8.8,24.6,24.3,27,41.5c2.4,17-2.7,33.5-14.5,46.3c-10.4,11.3-21.2,22-32.2,31.7
			c-4.5,4-4.9,10.8-0.9,15.2c2.1,2.4,5.1,3.6,8.1,3.6c2.5,0,5.1-0.9,7.2-2.7c11.5-10.2,22.9-21.4,33.7-33.3
			C507.4,377.1,514.5,354.4,511.2,330.9z M456.8,33.4c1.9-2.3,4.3-1.8,5.2-1.5c1.1,0.4,3.1,1.4,3.3,4.2
			c1.8,33.3,1.4,90.9-18.5,129.1c-7.4-11-16-21.4-25.6-30.9l29.4-33.1c4-4.5,3.6-11.3-0.9-15.2c-4.5-4-11.3-3.6-15.2,0.9l-29.3,33
			c-5-4.1-10.2-7.9-15.5-11.6C417.6,78.7,440.2,53.5,456.8,33.4z M46.8,36.1c0.2-2.8,2.1-3.9,3.3-4.2c0.9-0.3,3.3-0.8,5.2,1.5
			c16.6,20.1,39.2,45.3,67.2,74.8c-5.4,3.6-10.6,7.5-15.6,11.6l-29.3-33c-4-4.5-10.8-4.9-15.2-0.9c-4.5,4-4.9,10.8-0.9,15.2
			l29.4,33.1c-9.6,9.6-18.2,19.9-25.6,30.9C45.3,127,44.9,69.5,46.8,36.1z M245.2,418.9h-22.4v-19.7c8.3-1.7,15.9-5.2,22.4-10.2
			V418.9z M289.2,399.2v19.7h-22.4V389C273.3,393.9,280.9,397.5,289.2,399.2z M256,327.3l-29.3-41.4h29.1c0.1,0,0.1,0,0.2,0
			c0.1,0,0.1,0,0.2,0l29.1,0L256,327.3z M444.2,263.2l-13.4-2c-1.3-17.7-7-56.1-30.9-80.1c-13.7-13.8-31.1-20.7-51.7-20.7
			c-53.7,0-64.8,73.8-67.2,103.9h-24.8c-0.1,0-0.1,0-0.2,0c-0.1,0-0.1,0-0.2,0h-25c-2.3-30.2-13.4-103.9-67-103.9
			c-20.6,0-38,7-51.7,20.7c-23.9,24-29.6,62.4-30.9,80.1l-13.4,2c-4.6,0.7-9.1,1.8-13.4,3.2c0.7-26.5,7.6-51.9,20.5-75.5
			c0,0,0,0,0-0.1c0,0,0,0,0,0c9.7-17.7,22.5-33.8,38.1-47.9c9.7-8.7,20.3-16.6,31.7-23.3c33-19.6,71.4-30,111.2-30
			s78.2,10.4,111.2,30c11.4,6.8,22.1,14.6,31.7,23.3c15.6,14.1,28.4,30.2,38.1,47.9c0,0,0,0,0,0c0,0,0,0,0,0.1
			c13,23.7,19.9,49.1,20.5,75.5C453.3,265,448.8,263.9,444.2,263.2z"/>
	</g>
</g>
<g>
	<g>
		<path class="st0" d="M437.3,431.3c-3.6-4.7-10.4-5.6-15.1-2c-0.5,0.4-1,0.8-1.5,1.1c-4.8,3.6-5.7,10.4-2.1,15.1
			c2.1,2.8,5.3,4.3,8.6,4.3c2.3,0,4.6-0.7,6.5-2.2c0.5-0.4,1.1-0.8,1.6-1.2C440,442.8,440.9,436,437.3,431.3z"/>
	</g>
</g>
<g>
	<g>
		<path class="st0" d="M356.7,244.8c-17,0-30.8,13.8-30.8,30.8c0,6,4.8,10.8,10.8,10.8s10.8-4.8,10.8-10.8c0-5.1,4.1-9.2,9.2-9.2
			c5.1,0,9.2,4.1,9.2,9.2c0,6,4.8,10.8,10.8,10.8s10.8-4.8,10.8-10.8C387.5,258.6,373.7,244.8,356.7,244.8z"/>
	</g>
</g>
</svg>
